<svg version="1.1" viewBox="0.0 0.0 960.0 720.0" fill="none" stroke="none" stroke-linecap="square" stroke-miterlimit="10" xmlns:xlink="http://www.w3.org/1999/xlink" xmlns="http://www.w3.org/2000/svg"><clipPath id="p.0"><path d="m0 0l960.0 0l0 720.0l-960.0 0l0 -720.0z" clip-rule="nonzero"/></clipPath><g clip-path="url(#p.0)"><path fill="#000000" fill-opacity="0.0" d="m0 0l960.0 0l0 720.0l-960.0 0z" fill-rule="evenodd"/><path fill="#000000" fill-opacity="0.0" d="m216.5748 567.9698c47.912567 -20.542908 101.448975 -26.656006 153.46457 -30.120789c27.228455 -1.8136597 54.9946 -9.654541 81.753296 -4.301819c26.996063 5.4002075 50.74109 22.01355 77.451416 28.685059c27.833923 6.9520874 57.36609 1.4330444 86.055115 1.4330444" fill-rule="evenodd"/><path stroke="#000000" stroke-width="4.0" stroke-linejoin="round" stroke-linecap="butt" d="m216.5748 567.9698c47.912567 -20.542908 101.448975 -26.656006 153.46457 -30.120789c27.228455 -1.8136597 54.9946 -9.654541 81.753296 -4.301819c26.996063 5.4002075 50.74109 22.01355 77.451416 28.685059c27.833923 6.9520874 57.36609 1.4330444 86.055115 1.4330444" fill-rule="evenodd"/><path fill="#000000" fill-opacity="0.0" d="m332.74802 537.8478l-24.37793 -385.82678" fill-rule="evenodd"/><path stroke="#000000" stroke-width="4.0" stroke-linejoin="round" stroke-linecap="butt" d="m332.74802 537.8478l-24.37793 -385.82678" fill-rule="evenodd"/><path fill="#000000" fill-opacity="0.0" d="m311.2362 212.27034l252.44098 -11.464569" fill-rule="evenodd"/><path stroke="#000000" stroke-width="4.0" stroke-linejoin="round" stroke-linecap="butt" d="m311.2362 212.27034l252.44098 -11.464569" fill-rule="evenodd"/><path fill="#000000" fill-opacity="0.0" d="m434.58267 203.66405c0 14.829208 1.433075 29.635345 1.433075 44.46457" fill-rule="evenodd"/><path stroke="#000000" stroke-width="4.0" stroke-linejoin="round" stroke-linecap="butt" d="m434.58267 203.66405c0 14.829208 1.433075 29.635345 1.433075 44.46457" fill-rule="evenodd"/><path fill="#000000" fill-opacity="0.0" d="m437.4513 246.6936c-8.659241 0 -21.014587 -4.335495 -25.818878 2.8687744c-11.710449 17.560303 -6.352295 57.53076 14.343811 61.67453c21.548462 4.3144226 50.201874 -25.780731 45.89502 -47.33069c-2.768341 -13.851929 -24.598572 -17.212616 -38.724396 -17.212616" fill-rule="evenodd"/><path stroke="#000000" stroke-width="4.0" stroke-linejoin="round" stroke-linecap="butt" d="m437.4513 246.6936c-8.659241 0 -21.014587 -4.335495 -25.818878 2.8687744c-11.710449 17.560303 -6.352295 57.53076 14.343811 61.67453c21.548462 4.3144226 50.201874 -25.780731 45.89502 -47.33069c-2.768341 -13.851929 -24.598572 -17.212616 -38.724396 -17.212616" fill-rule="evenodd"/><path fill="#000000" fill-opacity="0.0" d="m437.45145 311.2362c0 39.275787 7.1705933 78.33316 7.1705933 117.60895c0 13.386688 0 26.773407 0 40.160095c0 5.736664 0 22.946625 0 17.20996" fill-rule="evenodd"/><path stroke="#000000" stroke-width="4.0" stroke-linejoin="round" stroke-linecap="butt" d="m437.45145 311.2362c0 39.275787 7.1705933 78.33316 7.1705933 117.60895c0 13.386688 0 26.773407 0 40.160095c0 5.736664 0 22.946625 0 17.20996" fill-rule="evenodd"/><path fill="#000000" fill-opacity="0.0" d="m400.1601 338.48557c13.346436 2.2271118 23.159912 14.015137 34.422577 21.514435c3.6688843 2.4429321 6.919739 11.720215 10.039368 8.606293c14.482666 -14.456177 31.216492 -26.764221 48.763794 -37.29132c6.1498413 -3.6894531 10.040924 -12.908142 17.212585 -12.908142" fill-rule="evenodd"/><path stroke="#000000" stroke-width="4.0" stroke-linejoin="round" stroke-linecap="butt" d="m400.1601 338.48557c13.346436 2.2271118 23.159912 14.015137 34.422577 21.514435c3.6688843 2.4429321 6.919739 11.720215 10.039368 8.606293c14.482666 -14.456177 31.216492 -26.764221 48.763794 -37.29132c6.1498413 -3.6894531 10.040924 -12.908142 17.212585 -12.908142" fill-rule="evenodd"/><path fill="#000000" fill-opacity="0.0" d="m444.62204 483.34647c-17.237915 0 -30.828674 16.507141 -43.02887 28.685028" fill-rule="evenodd"/><path stroke="#000000" stroke-width="4.0" stroke-linejoin="round" stroke-linecap="butt" d="m444.62204 483.34647c-17.237915 0 -30.828674 16.507141 -43.02887 28.685028" fill-rule="evenodd"/><path fill="#000000" fill-opacity="0.0" d="m446.0551 484.78217c19.296143 0 43.02887 19.428284 43.02887 38.724426" fill-rule="evenodd"/><path stroke="#000000" stroke-width="4.0" stroke-linejoin="round" stroke-linecap="butt" d="m446.0551 484.78217c19.296143 0 43.02887 19.428284 43.02887 38.724426" fill-rule="evenodd"/></g></svg>